<?xml version="1.0" encoding="utf-8"?>
<!-- Generator: Adobe Illustrator 26.0.0, SVG Export Plug-In . SVG Version: 6.00 Build 0)  -->
<svg version="1.1" id="Layer_1" xmlns="http://www.w3.org/2000/svg" xmlns:xlink="http://www.w3.org/1999/xlink" x="0px" y="0px"
	 viewBox="0 0 1410 701" style="enable-background:new 0 0 1410 701;" xml:space="preserve">
<style type="text/css">
	.st0{fill:#184E77;}
	.st1{fill:#52B69A;}
</style>
<g>
	<path class="st0" d="M636.8,290.5c15.4,22.5,35.1,78.6,43.5,123.5C704.2,492.6,721,576.8,808,582.4
		c-42.1-49.1-71.6-112.3-75.8-176.8c-2.8-32.3,15.4-80,54.7-73c-21-22.5-57.5-32.3-85.6-15.4c-15.4,9.8-22.5,26.7-29.5,43.5
		c-11.2-44.9-28.1-92.6-66-120.7c-7,0-9.8,2.8-7,14C608.7,266.6,627,273.7,636.8,290.5z"/>
	<path class="st0" d="M1093.6,348.6c-18.2,1.4-28.1,19.7-29.5,36.5c16.8-9.8,29.5,9.8,33.7,22.5
		C1131.5,403.4,1130.1,344.4,1093.6,348.6z"/>
	<path class="st0" d="M747.7,450.5c39.3-22.5,78.6-44.9,98.2-82.8c-28.1,26.7-59,54.7-101,66C744.9,439.3,746.3,447.7,747.7,450.5z"
		/>
	<path class="st0" d="M511.9,618.9c-8.4,7-11.2,12.6-14,21.1c-8.4-14-23.9-21.1-37.9-16.8c-18.2,9.8-19.6,33.7-14,51.9
		c12.6-5.6,29.5-2.8,35.1,11.2c9.8-2.8,16.8-12.6,21.1-22.5c7,8.4,18.2,16.8,29.5,19.7c-8.4-16.8,8.4-42.1,28.1-33.7
		C556.8,630.1,532.9,607.7,511.9,618.9z"/>
	<path class="st0" d="M677.5,471.6c-14,1.4-36.5,4.2-43.5,5.6c12.6,29.5,29.5,56.1,37.9,85.6c-2.8,5.6-1.4,14-8.4,18.2
		c-30.9-2.8-47.7-32.3-66-53.3c2.8-16.8,12.6-32.3,21.1-47.7c-8.4-2.8-16.8,2.8-23.9,5.6C568,501,568,536.1,545.6,554.3
		c-4.2,1.4-11.2,4.2-14,1.4c-14-11.2-28.1-28.1-32.3-47.7c-2.8-16.8-16.8-40.7,4.2-50.5c-1.4-5.6-7-9.8-12.6-12.6
		c-18.2-11.2-50.5-1.4-47.7,22.5c4.2,19.7,11.2,32.3,18.2,49.1c5.6,18.2,15.4,35.1,11.2,57.5c-14,5.6-25.3-14-33.7-25.3
		c-25.3-22.5-39.3-54.7-61.8-80c-7,80-71.6,158.6-129.1,157.2c-19.7-2.8-36.5-15.4-54.7-23.9c-16.8-4.2-40.7-15.4-56.1-4.2
		c-4.2,1.4-4.2,7,0,12.6c9.8,11.2,25.3,0,37.9,1.4c40.7-2.8,67.4,35.1,103.8,43.5c28.1,4.2,53.3-12.6,73-30.9
		c26.7-26.7,49.1-57.5,61.8-92.6c22.5,25.3,43.5,67.4,85.6,60.4c15.4-5.6,16.8-25.3,12.6-40.7c14,12.6,22.5,32.3,42.1,36.5
		c25.3,0,36.5-28.1,42.1-49.1c14,16.8,29.5,32.3,44.9,47.7c16.8,11.2,33.7,18.2,53.3,15.4c14-4.2,26.7-16.8,32.3-30.9
		c7,9.8,19.7,15.4,25.3,9.8C739.3,581,701.4,526.3,677.5,471.6z"/>
	<path class="st0" d="M1338.7,471.8c-2.8-18.2-8.4-49.1,18.2-54.7c-14-22.5-59-36.5-71.6-4.2c0,50.5,29.5,95.4,36.5,144.6
		c-2.8,11.2-15.4,8.4-21.1,1.4c-4.2-29.5-22.5-53.3-28.1-81.4c-7-26.7-11.2-54.7-7-80c-14,0-28.1,2.8-39.3,5.6
		c-5.6,2.8-8.4,8.4-8.4,14c4.2,39.3,19.7,74.4,32.3,110.9c4.2,11.2,9.8,23.9,7,35.1c-11.2,5.6-21.1-5.6-28.1-12.6
		c-4.2-2.8-4.2-11.2-4.2-8.4c0-40.7-7-81.4-19.6-119.3c-8.4-22.5-36.5-25.3-54.7-23.9c19.7,35.1,30.9,73,36.5,110.9
		c1.4,21.1,0,47.7-22.5,57.5c-8.4,4.2-21.1,0-28.1-5.6c13.3-15.9,24-35.6,26.3-56.6c-4.9-19.2-15.4-36.7-24.1-54.7
		c-1.2-2.4-0.3-4.7,1.3-6.2c-5-4.4-10.8-8.3-17.5-11.7c-12.6-7-28.1-7-42.1,0c-40.7,36.5-2.8,94,30.9,119.3
		c-12.6,11.2-47.7-7-70.2-36.5c-9.8-11.2-16.8-25.3-29.5-33.7c0,53.3-21.1,109.5-64.6,141.8c-28.1,15.4-56.1-4.2-80-15.4
		c-19.7-9.8-43.5-11.2-63.2-4.2c-4.2,2.8-9.8,8.4-9.8,15.4c9.8,8.4,22.5,1.4,30.9-1.4c12.6-5.6,26.7-7,39.3-4.2
		c22.4,9.8,40.7,28.1,61.7,39.3c30.9,9.8,61.8-7,80-28.1c15.4-15.4,22.4-33.7,29.5-53.3c4.2-8.4,5.6-14,8.4-23.9
		c11.2,19.7,30.9,39.3,54.7,39.3c14,1.4,23.9-11.2,35.1-19.7c22.5,26.7,68.8,25.3,84.2-8.4c15.4,16.8,37.9,35.1,61.8,32.3
		c9.8-1.4,16.8-9.8,19.7-19.7c19.7,16.8,56.1,26.7,73,1.4c5.6,7,15.4,12.6,19.7,9.8C1370.9,563,1344.3,506.9,1338.7,471.8z
		 M1122.5,541.9c-8.4-12.6-16.8-26.7-15.4-43.5c-1.4-14,18.2-19.6,26.7-9.8C1149.2,506.9,1138,530.7,1122.5,541.9z"/>
	<path class="st0" d="M547,371.9c-9.8-21,2.8-47.7,25.3-49.1c-14-22.5-54.7-26.7-68.8-1.4C495,346.6,517.5,380.3,547,371.9z"/>
	<path class="st0" d="M666.3,433.7c-5.6-8.4-9.8-22.5-12.6-30.9c-14-33.7-16.8-77.2-4.2-81.4c-23.9-26.7-56.1-25.3-64.6,4.2
		c-2.8,35.1,14,68.8,26.7,101C628.4,432.3,656.4,435.1,666.3,433.7z"/>
	<path class="st0" d="M490.8,435.1c57.5,40.7,130.5,40.7,200.7,29.5c-1.4-2.8-5.6-14-8.4-23.9c-87,1.4-182.5-35.1-226-115.1
		c-1.4-1.4-5.6-2.8-7,0c0,1.4-1.4,4.2,0,5.6c9.8,16.8,23.9,32.3,36.5,46.3c-28.1-18.2-53.3-44.9-78.6-68.8
		C410.8,362.1,448.7,407,490.8,435.1z"/>
	<path class="st0" d="M912.4,453.4c-8.4-4.2-16.9-4.2-29.5-8.4c-29.5,21.1-63.2,37.9-92.7,63.2c-4.2,8.4-4.2,12.6,0,16.9
		c16.9,12.6,37.9,8.4,54.8,12.6c-21.1,16.9-33.7,42.1-46.4,67.4l21.1-21.1c33.7-33.7,84.3-29.5,130.6-37.9
		c-4.2-12.6-21.1-25.3-25.3-37.9c-25.3,8.4-59,4.2-84.3,0C861.8,482.9,887.1,470.3,912.4,453.4z"/>
	<path class="st0" d="M896.7,285.2c-8.7-36.6-15.4-79.4-47.1-104.6c-1.4,1.1-3.9,0.8-5.3,2c-1.5,2.4-0.6,5,0.6,6.4
		c26.2,28.4,46.5,63.8,48.5,103.5c-1.4,47,10.3,91.6,23.2,136.4c12.6,58.7,47.5,100.8,68.5,84c-20.2-48.1-36.6-95.8-46.4-145.3
		c-3.4-27.1-3.8-57.8,7.6-80.7c14.1-23.9,42-10.6,51.6,5.7c2.1-7.4-2-16.8-6.2-24.9C971.8,228.5,899.4,238.3,896.7,285.2z"/>
</g>
<g>
	<path class="st1" d="M1048.8,316.4c11.4,40.9-20.1,82.3-62.7,84.8c-3.8,2.3-3.6,4.3,1.4,4.9c5.9-0.5,11.7-3,17.5-5.4
		c-13,11-28.4,18.3-44.2,19.6C1018.9,460.2,1083.1,369.3,1048.8,316.4z"/>
	<path class="st1" d="M326.6,423.7c-1.4,9.8-12.6,15.4-19.7,19.7c36.5,9.8,61.8-32.3,49.1-63.2c-28.1,0-68.8-11.2-84.2,21.1
		c-5.6,11.2-1.4,26.7,4.2,37.9C290.1,425.1,309.8,423.7,326.6,423.7z"/>
	<path class="st1" d="M537.2,311.6"/>
	<path class="st1" d="M984.1,298.2l-14,1.6c0,0,32.6,15.5,26.4,68.2C1010.5,357.1,1009,315.3,984.1,298.2z"/>
	<path class="st1" d="M809.6,307.5c0-44.8,17.1-64,17.1-64s0,8.5,8.5,8.5c12.8,2.1,10.7-27.7,10.7-27.7s-2.1-2.1-10.7-6.4
		c-8.5,4.3-23.4,21.3-34.1,61.8c-12.8-36.2-46.9-42.6-46.9-42.6l-8.5,8.5l17.1,25.6l2.1-14.9c14.9,4.3,27.7,34.1,32,42.6
		c2.1,8.5,4.3,25.6,8.5,23.5C811.8,322.5,809.6,307.5,809.6,307.5z"/>
	<path class="st1" d="M1231.2,320c-8.6,14.1-26.1,18.5-38,17.4c-7.9-0.7-5.1,2.2-0.2,4.8c27.4,14.6,106.9-47.3,58.7-69.5
		C1219.7,258,1187,311.6,1231.2,320z"/>
</g>
<g>
	<path class="st1" d="M165.5,96.9c5.2,2.5,8.3,7.4,12.4,11.1c19.7,17.9,43.2,25.2,69.3,24.8c45-0.6,76.3-29.7,80.9-74.6
		c0.4-4,1.1-8.1,2-12.1c3.5,28.6,2.7,57-2.1,85.4c-5.9,34.3-17.6,66.5-35.4,96.4c-22.2,37.3-47.4,72.6-70.3,109.5
		c-11.1,17.9-22.4,35.8-32.5,54.3c-15,27.7-24.1,56.9-23.1,88.8c0.3,9.3,0,18.6,0,29.3c-9.2-11.4-12.7-23.5-14.2-36.4
		c-2.6-22.3,1.6-43.8,7.4-65.2c9.6-35.4,21.5-70.3,29.7-106.1c8.2-35.5,11.2-71.5,7.2-107.8c-3.4-31.5-14.2-60.8-28.1-89.1
		C167.4,102.6,165.5,100.1,165.5,96.9L165.5,96.9z"/>
	<path class="st1" d="M150.8,520.9C79.8,490.4,3,395.8,16.5,289.7c4.5,2.9,7,7.2,9.6,11.1c6.5,9.9,15.7,17.2,26.3,20.7
		c15.6,5.1,31.6,4.3,46.3-4.8c17.5-10.9,30.9-25.6,40.5-43.7c17-32.2,24-67,25.6-103.1c0.4-8.3,0.2-16.6,0.4-24.9
		c0-2.1-0.6-4.3,1.1-6.2c2.7,0.4,2.4,2.9,3,4.5c18.5,51,19.1,102.3,3.7,154.2c-9.5,32.2-18.3,64.6-27.5,96.8
		c-7.8,27.4-11.2,55.3-6.8,83.5c2.1,13.3,7.3,26.1,11.1,39.1C150.1,518.3,150.4,519.5,150.8,520.9z"/>
	<path class="st1" d="M186,512.9c-10.1-34.6-2.4-66.2,10.5-97.1c13.6-32.6,32.8-62,52.1-91.3c20.9-31.7,41.7-63.4,62.6-95.1
		c1.2-1.8,2.4-3.6,4.5-6.7c0.6,5.5,0.5,9.6,1.6,13.7c2.7,9.9,9,16,18.6,19.3c18.7,6.4,36.9,2.6,55-2.1c22.8-5.9,42.3-18.1,60.9-32
		c3.8-2.9,7.8-5.5,12.2-7.9c-2.9,8.5-6.6,16.4-12.2,23.4c-17.2,21.8-40,36.1-64.8,47.2c-32.5,14.6-64.6,29.7-92.8,51.8
		c-31.5,24.8-61,51.6-82.1,86.3c-14.7,24-23.9,49.8-24.5,78.3c0,2.4-0.3,4.8-0.6,7.2C186.8,509.1,186.5,510.4,186,512.9z"/>
	<path class="st1" d="M83,199c21.2-0.3,37.8,15,37.6,37.7c-0.1,20.1-16.2,35.4-37.6,35.5c-19.6,0.1-36-16.6-35.8-36.3
		C47.6,214.2,62.4,198.9,83,199z"/>
	<path class="st1" d="M253.4,90.5c-16.7,2.3-35.8-14.1-36.5-35.8c-0.6-18.9,16.4-36.3,35.4-36.5c22.5-0.3,38.2,14.4,38.4,36.4
		C291,77.4,271.6,92.2,253.4,90.5z"/>
	<path class="st1" d="M373.4,234.4c-19.8,0-34.4-14.4-34.3-34.2c0-19,15-33,35.4-33.1c18,0,33.3,14.7,32.7,32.8
		C406.5,220.9,394,233.7,373.4,234.4z"/>
</g>
</svg>
